<?xml version="1.0" encoding="UTF-8" standalone="no"?>
<svg
   xmlns:dc="http://purl.org/dc/elements/1.1/"
   xmlns:cc="http://creativecommons.org/ns#"
   xmlns:rdf="http://www.w3.org/1999/02/22-rdf-syntax-ns#"
   xmlns:svg="http://www.w3.org/2000/svg"
   xmlns="http://www.w3.org/2000/svg"
   viewBox="0 0 1122.52 793.70135"
   height="793.70135"
   width="1122.52"
   xml:space="preserve"
   id="svg2"
   version="1.1"><metadata
     id="metadata8"><rdf:RDF><cc:Work
         rdf:about=""><dc:format>image/svg+xml</dc:format><dc:type
           rdf:resource="http://purl.org/dc/dcmitype/StillImage" /></cc:Work></rdf:RDF></metadata><defs
     id="defs6"><clipPath
       id="clipPath18"
       clipPathUnits="userSpaceOnUse"><path
         id="path16"
         d="M 0,595.276 H 841.89 V 0 H 0 Z" /></clipPath></defs><g
     transform="matrix(1.3333333,0,0,-1.3333333,0,793.70133)"
     id="g10"><g
       id="g12"><g
         clip-path="url(#clipPath18)"
         id="g14"><g
           transform="translate(367.6553,509.4341)"
           id="g20"><path
             id="path22"
             style="fill:#231f20;fill-opacity:1;fill-rule:nonzero;stroke:none"
             d="m 0,0 c 0,0 13.593,-0.066 14.91,-0.162 7.482,-1.892 13.796,-5.848 18.581,-11.714 5.654,-6.93 8.975,-16.423 9.5,-26.971 0.043,-1.283 0.067,-2.604 0.075,-3.956 -0.008,-1.352 -0.032,-2.675 -0.075,-3.958 -0.525,-10.548 -3.846,-20.04 -9.5,-26.971 C 28.706,-79.598 22.392,-83.554 14.91,-85.446 13.593,-85.54 0,-85.608 0,-85.608 Z m 57.453,-42.803 c 0.004,0.267 0.018,0.53 0.018,0.801 0,4.107 -0.573,8.065 -1.635,11.823 C 50.409,-8.977 31.988,3.308 9.508,3.308 H 8.292 -18.883 l -0.045,-0.12 4.567,-1.982 0.191,-0.083 0.223,-0.095 0.891,-0.315 0.02,-0.994 v -85.045 l -0.02,-0.995 -0.891,-0.313 -0.223,-0.097 -0.191,-0.083 -4.567,-1.982 0.045,-0.119 H 8.292 9.508 c 22.48,0 40.901,12.284 46.328,33.486 1.062,3.758 1.635,7.718 1.635,11.823 0,0.271 -0.014,0.533 -0.018,0.803" /></g><g
           transform="translate(217.1835,509.6218)"
           id="g24"><path
             id="path26"
             style="fill:#231f20;fill-opacity:1;fill-rule:nonzero;stroke:none"
             d="M 0,0 14.747,-3.007 12.915,3.121 H -54.157 L -55.991,-3.007 -41.409,0 h 14.182 v -86.92 h -1.136 l -4.758,-2.064 0.046,-0.12 h 24.731 l 0.045,0.12 -4.967,2.154 -0.905,0.295 -0.022,1.019 V 0 Z" /></g><g
           transform="translate(469.3756,512.7418)"
           id="g28"><path
             id="path30"
             style="fill:#231f20;fill-opacity:1;fill-rule:nonzero;stroke:none"
             d="m 0,0 h -24.731 l -0.045,-0.12 4.982,-2.161 0.891,-0.314 0.021,-0.994 V -90.04 h -1.135 l -4.759,-2.064 0.045,-0.119 H 0 l 0.045,0.119 -4.966,2.155 -0.905,0.295 -0.021,1.019 v 86.451 h 1.134 l 4.758,2.064 z" /></g><g
           transform="translate(329.2766,420.5185)"
           id="g32"><path
             id="path34"
             style="fill:#231f20;fill-opacity:1;fill-rule:nonzero;stroke:none"
             d="M 0,0 0.046,0.12 -4.917,2.273 -5.826,2.564 -5.847,3.588 V 90.04 h 1.135 L 0.046,92.103 0,92.223 h -24.729 l -0.047,-0.12 4.985,-2.161 0.888,-0.319 0.021,-0.988 v -61.45 c 0,-4.99 -2.161,-9.884 -5.928,-13.427 -4.174,-3.924 -9.91,-5.998 -16.587,-5.998 -14.535,0 -21.83,8.893 -21.83,21.355 V 90.04 h 1.135 l 4.758,2.063 -0.046,0.12 h -24.73 l -0.045,-0.12 4.985,-2.161 0.886,-0.319 0.022,-0.988 V 24.921 c 0,-10.422 5.872,-17.95 17.455,-22.376 7.668,-2.93 15.456,-3.484 17.494,-3.581 l 22.431,18.541 V 0 Z" /></g><g
           transform="translate(554.6479,497.7618)"
           id="g36"><path
             id="path38"
             style="fill:#231f20;fill-opacity:1;fill-rule:nonzero;stroke:none"
             d="m 0,0 c 6.922,-6.169 11.392,-14.209 13.287,-23.898 0.467,-2.383 0.697,-4.81 0.865,-6.583 0.062,-0.642 0.115,-1.205 0.17,-1.659 l 0.01,-0.091 v -0.091 C 14.209,-47.038 9.882,-58.381 0.71,-68.019 c -1.205,-1.265 -2.651,-2.524 -4.552,-3.96 -0.862,-0.65 -1.996,-0.841 -2.991,-0.943 -2.077,-0.211 -4.095,-0.316 -6.056,-0.316 -10.041,0 -18.594,2.776 -26.009,8.417 -7.033,5.348 -11.887,12.557 -14.429,21.423 -3.513,12.253 -2.902,24.231 1.814,35.603 2.671,6.44 6.862,11.847 12.454,16.071 1.023,0.773 2.375,0.973 3.361,1.119 C -21.187,11.548 -9.51,8.475 0,0 M -37.344,12.528 C -47.063,8.2 -54.905,1.173 -60.654,-8.358 c -5.886,-9.764 -8.121,-19.478 -6.829,-29.702 1.336,-10.568 5.807,-19.649 13.286,-26.991 11.15,-10.944 24.847,-15.213 40.708,-12.686 10.293,1.64 19.44,6.812 27.188,15.373 8.019,8.862 12.118,19.736 12.53,33.24 -0.024,0.323 -0.048,0.671 -0.072,1.037 -0.061,0.906 -0.13,1.935 -0.238,2.944 -0.862,7.991 -3.632,15.391 -8.235,21.994 C 12.526,4.25 5.782,9.659 -2.362,12.926 c -5.392,2.164 -10.971,3.256 -16.624,3.256 -0.98,0 -1.962,-0.034 -2.947,-0.099 -5.885,-0.394 -10.926,-1.556 -15.411,-3.555" /></g><g
           transform="translate(139.3345,464.8611)"
           id="g40"><path
             id="path42"
             style="fill:#231f20;fill-opacity:1;fill-rule:nonzero;stroke:none"
             d="m 0,0 c -1.266,0.971 -10.914,8.065 -14.316,10.621 0,0 -12.976,7.59 -15,19.564 -1.572,9.297 3.55,16.011 14.375,16.011 13.263,0 16.322,-13.444 16.322,-13.444 0,0 1.729,4.518 3.253,8.15 0,0 -5.239,7.386 -20.389,7.386 -15.363,0 -23.097,-12.957 -23.097,-21.721 0,-12.986 8.687,-20.513 13.561,-23.684 5.281,-3.436 11.868,-8.252 14.584,-10.43 3.24,-2.598 9.913,-9.504 9.913,-19.579 0,-5.848 -5.109,-14.675 -18.576,-14.675 -17.964,0 -19.825,13.269 -19.825,13.269 l -3.114,-10.298 c 0,0 10.44,-6.957 22.074,-6.957 16.714,0 30.621,9.555 30.621,23.87 C 10.386,-12.363 6.601,-5.067 0,0" /></g><g
           transform="translate(767.9494,513.2012)"
           id="g44"><path
             id="path46"
             style="fill:#231f20;fill-opacity:1;fill-rule:nonzero;stroke:none"
             d="m 0,0 h -24.729 l -0.047,-0.12 4.964,-2.153 0.909,-0.291 0.021,-1.025 V -90.04 h -1.135 l -4.759,-2.064 0.047,-0.12 H 0 l 0.046,0.12 -4.982,2.161 -0.89,0.314 -0.021,0.994 v 86.451 h 1.135 l 4.758,2.064 z" /></g><g
           transform="translate(725.1931,487.3483)"
           id="g48"><path
             id="path50"
             style="fill:#231f20;fill-opacity:1;fill-rule:nonzero;stroke:none"
             d="m 0,0 c 0,9.075 -4.084,15.912 -12.139,20.32 -8.369,4.579 -18.378,5.074 -22.293,5.074 -0.326,0 -0.626,-0.008 -0.91,-0.022 l -1.482,-0.076 v 0.098 h -18.861 l -0.042,-0.11 5.868,-2.486 v -86.961 l -5.872,-2.546 0.046,-0.121 h 24.73 l 0.045,0.121 -4.983,2.16 -0.888,0.316 -0.043,0.999 v 84.627 h 1.409 c 3.876,0 9.813,-1.114 14.851,-4.239 6.16,-3.824 9.416,-9.69 9.416,-16.965 0,-15.631 -10.984,-24.067 -21.319,-24.067 -0.575,0 -1.086,0 -1.539,0.002 C -30.362,-27.183 0,-27.358 0,0" /></g><g
           transform="translate(470.4455,318.8835)"
           id="g52"><path
             id="path54"
             style="fill:#231f20;fill-opacity:1;fill-rule:nonzero;stroke:none"
             d="m 0,0 c 0,0 13.573,-0.067 14.888,-0.163 7.471,-1.903 13.776,-5.884 18.554,-11.786 5.645,-6.974 8.961,-16.525 9.486,-27.137 0.043,-1.292 0.066,-2.621 0.074,-3.982 -0.008,-1.36 -0.031,-2.69 -0.074,-3.981 C 42.403,-57.662 39.087,-67.213 33.442,-74.186 28.664,-80.088 22.359,-84.069 14.888,-85.973 13.573,-86.068 0,-86.135 0,-86.135 Z m 57.368,-43.068 c 0.004,0.271 0.018,0.535 0.018,0.807 0,4.132 -0.571,8.115 -1.632,11.896 C 50.335,-9.032 31.941,3.328 9.494,3.328 H 8.279 -18.855 l -0.046,-0.12 h 0.001 l -0.001,-0.001 4.561,-1.993 0.19,-0.083 0.223,-0.098 0.89,-0.315 0.021,-1.001 v -85.569 l -0.021,-1.001 -0.89,-0.316 -0.223,-0.097 -0.19,-0.083 -4.561,-1.994 h 0.001 -0.001 l 0.046,-0.121 H 8.279 9.494 c 22.447,0 40.841,12.361 46.26,33.693 1.061,3.781 1.632,7.765 1.632,11.897 0,0.272 -0.014,0.536 -0.018,0.806" /></g><g
           transform="translate(320.1945,319.0724)"
           id="g56"><path
             id="path58"
             style="fill:#231f20;fill-opacity:1;fill-rule:nonzero;stroke:none"
             d="m 0,0 14.726,-3.025 -1.83,6.164 H -54.077 L -55.908,-3.025 -41.348,0 h 14.161 v -87.455 h -1.134 l -4.751,-2.077 0.046,-0.12 h 24.694 l 0.045,0.12 -4.959,2.168 -0.904,0.296 -0.021,1.026 V 0 Z" /></g><g
           transform="translate(572.0165,322.2117)"
           id="g60"><path
             id="path62"
             style="fill:#231f20;fill-opacity:1;fill-rule:nonzero;stroke:none"
             d="m 0,0 h -24.694 l -0.045,-0.121 4.974,-2.174 0.889,-0.316 0.021,-1 v -86.983 h -1.133 l -4.751,-2.078 0.045,-0.12 H 0 l 0.046,0.12 -4.959,2.168 -0.905,0.297 -0.021,1.026 v 86.984 h 1.133 l 4.752,2.076 z" /></g><g
           transform="translate(432.123,229.42)"
           id="g64"><path
             id="path66"
             style="fill:#231f20;fill-opacity:1;fill-rule:nonzero;stroke:none"
             d="M 0,0 0.046,0.12 -4.91,2.287 -5.817,2.58 -5.839,3.61 v 86.984 h 1.134 L 0.046,92.671 0,92.792 h -24.693 l -0.046,-0.121 4.978,-2.175 0.885,-0.32 0.021,-0.995 V 27.353 c 0,-5.021 -2.157,-9.945 -5.919,-13.51 -4.168,-3.948 -9.895,-6.036 -16.563,-6.036 -14.513,0 -21.797,8.948 -21.797,21.487 v 61.3 h 1.133 l 4.751,2.077 -0.046,0.121 h -24.693 l -0.046,-0.121 4.978,-2.175 0.886,-0.32 0.021,-0.995 V 25.074 c 0,-10.485 5.864,-18.059 17.429,-22.513 7.656,-2.948 15.434,-3.505 17.469,-3.603 l 22.397,18.655 V 0 Z" /></g><g
           transform="translate(657.1636,307.1393)"
           id="g68"><path
             id="path70"
             style="fill:#231f20;fill-opacity:1;fill-rule:nonzero;stroke:none"
             d="m 0,0 c 6.912,-6.206 11.376,-14.296 13.268,-24.045 0.465,-2.397 0.696,-4.84 0.864,-6.623 0.061,-0.646 0.114,-1.213 0.169,-1.67 l 0.011,-0.091 -10e-4,-0.092 c -0.122,-14.807 -4.444,-26.22 -13.602,-35.917 -1.203,-1.273 -2.647,-2.539 -4.546,-3.985 -0.859,-0.654 -1.992,-0.847 -2.986,-0.948 -2.074,-0.213 -4.089,-0.319 -6.047,-0.319 -10.027,0 -18.567,2.793 -25.971,8.469 -7.022,5.382 -11.87,12.635 -14.408,21.556 -3.507,12.327 -2.898,24.38 1.812,35.821 2.667,6.48 6.851,11.921 12.435,16.171 1.022,0.778 2.371,0.979 3.356,1.126 C -21.156,11.619 -9.496,8.527 0,0 M -37.289,12.606 C -46.994,8.251 -54.825,1.181 -60.564,-8.409 c -5.879,-9.824 -8.11,-19.599 -6.819,-29.886 1.334,-10.632 5.797,-19.769 13.266,-27.157 11.134,-11.012 24.81,-15.306 40.648,-12.764 10.278,1.65 19.412,6.854 27.148,15.468 8.008,8.917 12.101,19.857 12.512,33.445 -0.024,0.324 -0.048,0.674 -0.073,1.043 -0.06,0.912 -0.129,1.947 -0.238,2.962 -0.859,8.04 -3.626,15.486 -8.222,22.13 -5.15,7.444 -11.885,12.887 -20.016,16.174 -5.384,2.177 -10.955,3.275 -16.599,3.275 -0.98,0 -1.961,-0.033 -2.944,-0.099 -5.875,-0.396 -10.909,-1.566 -15.388,-3.576" /></g><g
           transform="translate(242.4598,274.0358)"
           id="g72"><path
             id="path74"
             style="fill:#231f20;fill-opacity:1;fill-rule:nonzero;stroke:none"
             d="m 0,0 c -1.263,0.977 -10.897,8.115 -14.295,10.687 0,0 -12.957,7.635 -14.978,19.685 -1.569,9.353 3.545,16.109 14.354,16.109 13.243,0 16.298,-13.528 16.298,-13.528 0,0 1.726,4.547 3.248,8.202 0,0 -5.23,7.431 -20.359,7.431 -15.34,0 -23.063,-13.037 -23.063,-21.855 0,-13.067 8.674,-20.64 13.541,-23.831 5.274,-3.457 11.85,-8.301 14.563,-10.494 3.234,-2.614 9.898,-9.562 9.898,-19.699 0,-5.884 -5.101,-14.765 -18.549,-14.765 -17.937,0 -19.796,13.35 -19.796,13.35 l -3.108,-10.362 c 0,0 10.424,-6.998 22.041,-6.998 16.689,0 30.576,9.613 30.576,24.016 C 10.371,-12.438 6.592,-5.098 0,0" /></g><g
           transform="translate(490.9322,201.487)"
           id="g76"><path
             id="path78"
             style="fill:#231f20;fill-opacity:1;fill-rule:nonzero;stroke:none"
             d="m 0,0 h -24.693 l -0.046,-0.121 4.955,-2.166 0.908,-0.293 0.021,-1.031 v -86.984 h -1.133 l -4.751,-2.077 0.046,-0.12 H 0 l 0.046,0.12 -4.975,2.174 -0.888,0.316 -0.022,1.001 v 86.983 h 1.134 l 4.751,2.077 z" /></g><g
           transform="translate(448.2387,175.4747)"
           id="g80"><path
             id="path82"
             style="fill:#231f20;fill-opacity:1;fill-rule:nonzero;stroke:none"
             d="m 0,0 c 0,9.131 -4.078,16.01 -12.121,20.446 -8.356,4.607 -18.351,5.104 -22.261,5.104 -0.325,0 -0.625,-0.008 -0.909,-0.023 l -1.478,-0.076 v 0.099 h -18.834 l -0.042,-0.11 5.859,-2.502 v -87.496 l -5.863,-2.563 0.046,-0.121 h 24.693 l 0.046,0.121 -4.976,2.175 -0.887,0.318 -0.042,1.005 v 85.148 h 1.406 c 3.87,0 9.799,-1.121 14.829,-4.266 6.151,-3.847 9.402,-9.749 9.402,-17.069 0,-15.727 -10.968,-24.214 -21.287,-24.214 h -1.538 C -30.318,-27.35 0,-27.526 0,0" /></g></g></g></g></svg>