<svg width="842" height="134" viewBox="0 0 842 134" fill="none" xmlns="http://www.w3.org/2000/svg">
<path d="M411.39 66.4529C411.39 66.1193 411.415 65.7981 411.415 65.4645C411.415 60.3865 410.71 55.4938 409.388 50.8605C402.679 24.6673 379.921 9.48267 352.146 9.48267H317.07L317.008 9.63093L322.654 12.0773L322.889 12.1761L323.161 12.2997L324.26 12.6827L324.285 13.9059V118.988L324.26 120.211L323.161 120.594L322.889 120.717L322.654 120.816L317.008 123.263L317.07 123.411H352.146C379.921 123.411 402.679 108.239 409.388 82.0329C410.698 77.3873 411.415 72.4947 411.415 67.429C411.415 67.0954 411.402 66.7742 411.39 66.4406M340.409 13.5599C340.409 13.5599 357.2 13.6464 358.83 13.7576C368.072 16.0927 375.881 20.9854 381.787 28.2256C388.767 36.7879 392.882 48.513 393.524 61.5479C393.574 63.1293 393.611 64.7602 393.623 66.4406C393.623 68.1085 393.586 69.7394 393.524 71.3333C392.882 84.3681 388.767 96.0933 381.787 104.655C375.881 111.908 368.072 116.788 358.83 119.124C357.2 119.235 340.409 119.321 340.409 119.321V13.5476V13.5599Z" fill="#231F20"/>
<path d="M154.486 13.3251L172.71 17.0441L170.449 9.47028H87.582L85.3086 17.0441L103.323 13.3251H120.855V120.717H119.446L113.565 123.275L113.627 123.423H144.182L144.231 123.275L138.103 120.606L136.978 120.248L136.954 118.988V13.3251H154.486Z" fill="#231F20"/>
<path d="M466.087 9.47028H435.532L435.47 9.61854L441.623 12.2996L442.723 12.6827L442.747 13.9058V120.717H441.351L435.47 123.275L435.532 123.423H466.087L466.136 123.275L460.008 120.606L458.883 120.248L458.859 118.988V12.1761H460.255L466.136 9.61854L466.087 9.47028Z" fill="#231F20"/>
<path d="M292.989 123.423L293.051 123.275L286.923 120.618L285.798 120.26L285.774 119V12.1884H287.182L293.063 9.64325L293.001 9.495H262.447L262.385 9.64325L268.55 12.312L269.65 12.7074L269.675 13.9305V89.8538C269.675 96.0191 267.006 102.061 262.348 106.447C257.196 111.29 250.104 113.86 241.851 113.86C223.886 113.86 214.879 102.876 214.879 87.4816V12.2008H216.275L222.156 9.65561L222.094 9.50734H191.54L191.478 9.65561L197.631 12.3243L198.731 12.7197L198.755 13.9429V92.6585C198.755 105.533 206.008 114.836 220.328 120.31C229.804 123.93 239.429 124.609 241.937 124.733L269.65 101.826V123.46H292.977L292.989 123.423Z" fill="#231F20"/>
<path d="M525.293 12.5097C513.284 17.8595 503.597 26.5453 496.493 38.3199C489.216 50.3787 486.46 62.388 488.054 75.0151C489.71 88.0747 495.233 99.2933 504.474 108.362C518.251 121.879 535.177 127.154 554.773 124.041C567.486 122.015 578.791 115.627 588.367 105.051C598.276 94.104 603.341 80.6615 603.848 63.9818C603.823 63.5865 603.786 63.154 603.762 62.6969C603.687 61.5726 603.601 60.3 603.465 59.0644C602.402 49.1925 598.98 40.0496 593.297 31.8951C586.921 22.7522 578.594 16.068 568.524 12.0278C561.865 9.35908 554.97 8 547.99 8C546.779 8 545.568 8.03707 544.345 8.12356C537.08 8.60542 530.841 10.051 525.305 12.522M571.44 27.9785C579.99 35.6017 585.513 45.5354 587.86 57.5077C588.441 60.4482 588.725 63.4506 588.923 65.6374C588.997 66.4282 589.059 67.1324 589.133 67.6884V67.7996L589.145 67.9108C588.997 86.0978 583.647 100.109 572.317 112.019C570.835 113.588 569.043 115.133 566.696 116.912C565.633 117.715 564.225 117.95 563.001 118.073C560.432 118.333 557.936 118.469 555.514 118.469C543.109 118.469 532.546 115.034 523.378 108.066C514.692 101.455 508.688 92.5473 505.549 81.6005C501.213 66.4653 501.966 51.6636 507.786 37.6156C511.084 29.6588 516.261 22.9746 523.168 17.7607C524.428 16.8093 526.096 16.5622 527.319 16.3769C545.247 13.7205 559.678 17.5136 571.428 27.9785" fill="#231F20"/>
<path d="M58.3 68.6275C56.7308 67.429 44.8203 58.6567 40.6072 55.5061C40.6072 55.5061 24.57 46.1285 22.0742 31.3392C20.1345 19.8488 26.4604 11.5584 39.8411 11.5584C56.2243 11.5584 60.005 28.1639 60.005 28.1639C60.005 28.1639 62.1425 22.5793 64.0205 18.0943C64.0205 18.0943 57.5463 8.96375 38.828 8.96375C20.1097 8.96375 10.2873 24.9762 10.2873 35.7994C10.2873 51.849 21.024 61.1401 27.0411 65.0568C33.5647 69.307 41.7068 75.2499 45.0551 77.9433C49.0582 81.1557 57.2992 89.6809 57.2992 102.135C57.2992 109.363 50.9856 120.26 34.343 120.26C12.1529 120.26 9.8425 103.865 9.8425 103.865L6 116.591C6 116.591 18.8989 125.19 33.2681 125.19C53.9138 125.19 71.1 113.391 71.1 95.6979C71.1 83.8986 66.4297 74.8792 58.2629 68.6151" fill="#231F20"/>
<path d="M834.979 8.90192H804.424L804.362 9.05018L810.503 11.7189L811.627 12.0772L811.652 13.3375V120.149H810.243L804.362 122.707L804.424 122.855H834.979L835.041 122.707L828.875 120.038L827.776 119.642L827.751 118.419V11.6077H829.159L835.041 9.05018L834.979 8.90192Z" fill="#231F20"/>
<path d="M782.147 40.8528C782.147 29.6341 777.106 21.1955 767.148 15.7468C756.806 10.0881 744.439 9.48267 739.608 9.48267C739.2 9.48267 738.829 9.48266 738.483 9.50737L736.655 9.60622V9.48267H713.353L713.303 9.61857L720.556 12.695V120.137L713.303 123.287L713.365 123.436H743.92L743.981 123.287L737.829 120.619L736.729 120.223L736.679 118.988V14.4248H738.422C743.215 14.4248 750.542 15.7962 756.769 19.6634C764.38 24.3831 768.408 31.6357 768.408 40.618C768.408 59.9293 754.842 70.3572 742.066 70.3572C741.362 70.3572 740.72 70.3572 740.164 70.3572C744.661 74.4468 782.184 74.6568 782.184 40.8528" fill="#231F20"/>
</svg>
